<svg width="15" height="60" viewBox="0 0 15 60" fill="none" xmlns="http://www.w3.org/2000/svg">
<path d="M1.43156 15V14.648L2.35956 14.44C2.59423 14.3867 2.77023 14.312 2.88756 14.216C3.01556 14.1093 3.1169 13.9707 3.19156 13.8L6.45556 6.072L5.95956 4.84C6.3009 4.82933 6.5889 4.76533 6.82356 4.648C7.05823 4.52 7.23423 4.38133 7.35156 4.232C7.4689 4.072 7.52756 3.93867 7.52756 3.832H7.75156L11.9436 14.008C11.9969 14.136 12.0822 14.232 12.1996 14.296C12.3169 14.36 12.5036 14.4187 12.7596 14.472L13.5756 14.648V15H7.97556V14.648L8.79156 14.472C9.02623 14.4187 9.1969 14.3547 9.30356 14.28C9.4209 14.1947 9.47956 14.0827 9.47956 13.944C9.47956 13.8907 9.4689 13.8373 9.44756 13.784C9.4369 13.7307 9.4209 13.672 9.39956 13.608L6.55156 6.472H6.90356L3.79956 13.816C3.7889 13.848 3.77823 13.88 3.76756 13.912C3.76756 13.944 3.76756 13.9707 3.76756 13.992C3.76756 14.088 3.8049 14.1733 3.87956 14.248C3.95423 14.3227 4.0769 14.376 4.24756 14.408L5.62356 14.648V15H1.43156ZM4.80756 11.384V10.856H9.36756V11.384H4.80756Z" fill="#182521"/>
<path d="M4.32969 35.112L9.83369 23.64H10.6657L5.16169 35.112H4.32969Z" fill="#182521"/>
<path d="M8.42819 55V54.648L9.24419 54.472C9.61752 54.3867 9.85219 54.2907 9.94819 54.184C10.0549 54.0773 10.1082 53.8587 10.1082 53.528V45.704C10.1082 45.3627 10.0549 45.1387 9.94819 45.032C9.85219 44.9253 9.61752 44.8347 9.24419 44.76L8.42819 44.584V44.232H14.0282V44.584L13.2122 44.76C12.8495 44.8347 12.6149 44.9253 12.5082 45.032C12.4015 45.1387 12.3482 45.3627 12.3482 45.704V53.528C12.3482 53.8587 12.4015 54.0773 12.5082 54.184C12.6149 54.2907 12.8495 54.3867 13.2122 54.472L14.0282 54.648V55H8.42819ZM0.972188 55V54.648L1.78819 54.472C2.16152 54.3867 2.39619 54.2907 2.49219 54.184C2.59885 54.0773 2.65219 53.8587 2.65219 53.528V45.704C2.65219 45.3627 2.59885 45.1387 2.49219 45.032C2.39619 44.9253 2.16152 44.8347 1.78819 44.76L0.972188 44.584V44.232H6.57219V44.584L5.75619 44.76C5.39352 44.8347 5.15885 44.9253 5.05219 45.032C4.94552 45.1387 4.89219 45.3627 4.89219 45.704V53.528C4.89219 53.8587 4.94552 54.0773 5.05219 54.184C5.15885 54.2907 5.39352 54.3867 5.75619 54.472L6.57219 54.648V55H0.972188ZM4.60419 49.544V49.016H10.7482V49.544H4.60419Z" fill="#182521"/>
</svg>
