<svg width="470" height="4877" viewBox="0 0 470 4877" fill="none" xmlns="http://www.w3.org/2000/svg">
<path d="M1 4877C1 4852.92 33.1296 4827.66 76.4412 4804.47C202.406 4737.01 350.88 4693.46 420.366 4568.6C449.284 4516.64 469 4456.66 469 4393.47C469 4308.54 400.762 4218.77 322.16 4145.22C216.496 4046.36 57.3467 3976.4 32.659 3833.82C22.4312 3774.75 44.9062 3723.73 77.1169 3669.14C124.247 3589.26 177.799 3513.12 226.563 3434.23C306.026 3305.68 399.58 3121.87 420.946 2963.81C439.422 2827.11 367.685 2704.01 286.654 2615.74C206.782 2528.74 90.1892 2463.5 70.0474 2347.12C42.8807 2190.16 129.755 2012.46 151.658 1963.94C264.779 1713.41 90.5914 1641.03 86.5872 1538.1C85.2021 1502.5 122.587 1420.44 159.628 1333.06C229.146 1169.08 98.9627 1086.73 121.754 910.084V910.084C126.052 876.772 157.279 771.19 172.794 741.4C238.116 615.982 270.62 517.79 299.819 410.429C310.334 371.768 374.017 194.026 358 107.5C355.08 72.8333 343.5 45.5 351.5 1" stroke="url(#paint0_linear_250_238)"/>
<defs>
<linearGradient id="paint0_linear_250_238" x1="193.432" y1="296.191" x2="193.432" y2="4748.63" gradientUnits="userSpaceOnUse">
<stop stop-color="#A93C3B"/>
<stop offset="0.239184" stop-color="#172421"/>
<stop offset="0.492304" stop-color="#1C6795"/>
<stop offset="0.587856" stop-color="#272959"/>
<stop offset="0.7802" stop-color="#45BEBE"/>
<stop offset="1" stop-color="#084343"/>
</linearGradient>
</defs>
</svg>
